# xmcd CD database file
#
# Track frame offsets:
#	150
#	13779
#	30457
#	43181
#	64053
#	81030
#	92909
#	105542
#	118881
#	132741
#
# Disc length: 1902 seconds
#
# Revision: 0
# Processed by: cddbd v1.5.2PL0 Copyright (c) Steve Scherf et al.
# Submitted via: CDex 1.51
#
DISCID=87076c0a
DTITLE=Conway Twitty - Conway Twitty: Collector's Edition [CD3]
DYEAR=2007
DGENRE=Country
TTITLE0=You've Never Been This Far Before
TTITLE1=Don't Take It Away
TTITLE2=Tight Fittin' Jeans
TTITLE3=Red Neckin' Love Makin' Night
TTITLE4=Crazy In Love
TTITLE5=After The Fire Is Gone (ft. Loretta Lynn)
TTITLE6=I See The Want To In Your Eyes
TTITLE7=After All The Good Is Gone
TTITLE8=The Games That Daddies Play
TTITLE9=It's Only Make Believe
EXTD=YEAR: 2007
EXTT0=
EXTT1=
EXTT2=
EXTT3=
EXTT4=
EXTT5=
EXTT6=
EXTT7=
EXTT8=
EXTT9=
PLAYORDER=
